<?xml version="1.0" encoding="utf-8"?>
<!-- Generator: Adobe Illustrator 23.1.0, SVG Export Plug-In . SVG Version: 6.00 Build 0)  -->
<svg version="1.1" id="Capa_1" xmlns="http://www.w3.org/2000/svg" xmlns:xlink="http://www.w3.org/1999/xlink" x="0px" y="0px"
	 viewBox="0 0 1920 1080" style="enable-background:new 0 0 1920 1080;" xml:space="preserve">
<style type="text/css">
	.st0{fill:#182B48;}
	.st1{fill:#004D8B;}
	.st2{fill:none;stroke:#FFFFFF;stroke-width:4;stroke-miterlimit:10;}
	.st3{fill:#073A58;stroke:#FFFFFF;stroke-width:2;stroke-miterlimit:10;}
	.st4{fill:#335AA6;}
	.st5{fill:#ACCBE0;}
	.st6{fill:none;stroke:#3C3C3B;stroke-width:3;stroke-miterlimit:10;}
	.st7{fill:none;stroke:#E30613;stroke-width:3;stroke-miterlimit:10;}
	.st8{fill:#3558A4;}
	.st9{fill:none;stroke:#FFFFFF;stroke-width:2;stroke-miterlimit:10;}
	.st10{fill:#FFFFFF;}
	.st11{fill:#ACCBE0;stroke:#3C3C3B;stroke-width:3;stroke-miterlimit:10;}
	.st12{fill:#073A58;stroke:#FFFFFF;stroke-miterlimit:10;}
	.st13{fill:none;stroke:#FFFFFF;stroke-width:3;stroke-miterlimit:10;}
	.st14{fill:none;stroke:#FFFFFF;stroke-miterlimit:10;}
	.st15{fill:none;stroke:#FFFFFF;stroke-width:0.5;stroke-miterlimit:10;}
</style>
<g>
	<rect y="-0.2" class="st0" width="1920" height="1080.3"/>
	<polygon class="st1" points="1714.5,1066.7 207.1,1066.7 207.1,178.1 1714.5,178.1 1714.5,310.7 	"/>
	<g>
		
			<image style="overflow:visible;opacity:0.6;" width="6968" height="4389" xlink:href="CA54579E.png"  transform="matrix(0.24 0 0 0.24 131.5124 108.2302)">
		</image>
		<g>
			
				<image style="overflow:visible;opacity:0.4;" width="6480" height="3901" xlink:href="CA5457A2.png"  transform="matrix(0.24 0 0 0.24 190.2161 166.9338)">
			</image>
			<g>
				
					<image style="overflow:visible;opacity:0.75;" width="6424" height="3845" xlink:href="CA5457A5.png"  transform="matrix(0.24 0 0 0.24 196.92 173.6378)">
				</image>
				<g>
					<rect x="207.1" y="183.8" class="st2" width="1507.4" height="888.6"/>
				</g>
			</g>
		</g>
	</g>
	<circle class="st3" cx="960" cy="615.9" r="158.7"/>
	<g>
		
			<image style="overflow:visible;opacity:0.85;" width="468" height="914" xlink:href="CA5457A6.png"  transform="matrix(0.24 0 0 0.24 44.2961 200.2938)">
		</image>
		<g>
			<rect x="47.1" y="203.1" class="st4" width="95.2" height="202.3"/>
		</g>
	</g>
	<g>
		
			<image style="overflow:visible;opacity:0.85;" width="469" height="915" xlink:href="CA5457A4.png"  transform="matrix(0.24 0 0 0.24 51.4961 823.0938)">
		</image>
		<g>
			<rect x="54.6" y="826.2" class="st4" width="95.2" height="202.3"/>
		</g>
	</g>
	<g>
		
			<image style="overflow:visible;opacity:0.85;" width="469" height="914" xlink:href="CA5457A3.png"  transform="matrix(0.24 0 0 0.24 1761.0161 823.5739)">
		</image>
		<g>
			<rect x="1775.3" y="826.4" class="st4" width="95.2" height="202.3"/>
		</g>
	</g>
	<g>
		
			<image style="overflow:visible;opacity:0.85;" width="469" height="914" xlink:href="CA5457AD.png"  transform="matrix(0.24 0 0 0.24 1761.0161 200.2938)">
		</image>
		<g>
			<rect x="1775.3" y="203.1" class="st4" width="95.2" height="202.3"/>
		</g>
	</g>
	<g>
		
			<image style="overflow:visible;opacity:0.85;" width="746" height="745" xlink:href="CA5457AE.png"  transform="matrix(0.24 0 0 0.24 10.9361 12.6138)">
		</image>
		<g>
			<rect x="15.4" y="17" class="st5" width="158.7" height="158.7"/>
			<rect x="15.4" y="17" class="st6" width="158.7" height="158.7"/>
		</g>
	</g>
	<g>
		
			<image style="overflow:visible;opacity:0.85;" width="745" height="745" xlink:href="CA5457AC.png"  transform="matrix(0.24 0 0 0.24 1739.176 12.6138)">
		</image>
		<g>
			<rect x="1743.6" y="17" class="st5" width="158.7" height="158.7"/>
			<rect x="1743.6" y="17" class="st6" width="158.7" height="158.7"/>
		</g>
	</g>
	<g>
		
			<image style="overflow:visible;opacity:0.6;" width="1019" height="787" xlink:href="3E30AA21.png"  transform="matrix(0.24 0 0 0.24 844.2482 -21.6741)">
		</image>
		<g>
			<path class="st5" d="M1044.5,134.3H877.1c-6.3,0-11.3-5.1-11.3-11.3V-0.2h190.1v123.1C1055.9,129.2,1050.8,134.3,1044.5,134.3z"
				/>
			<path class="st6" d="M1044.5,134.3H877.1c-6.3,0-11.3-5.1-11.3-11.3V-0.2h190.1v123.1C1055.9,129.2,1050.8,134.3,1044.5,134.3z"
				/>
		</g>
	</g>
	<g>
		
			<image style="overflow:visible;opacity:0.85;" width="1924" height="315" xlink:href="3E30AA27.png"  transform="matrix(0.24 0 0 0.24 249.7361 -3.2262)">
		</image>
		<g>
			<polyline class="st8" points="661.6,-0.2 697.3,57.1 697.3,58 288.4,58 252.7,0.7 664.3,0.7 			"/>
		</g>
	</g>
	<g>
		
			<image style="overflow:visible;opacity:0.85;" width="1925" height="315" xlink:href="3E30AA20.png"  transform="matrix(0.24 0 0 0.24 1218.6161 -3.2262)">
		</image>
		<g>
			<polyline class="st8" points="1630.5,58 1666.2,0.7 1666.2,-0.2 1257.3,-0.2 1221.6,57.1 1633.2,57.1 			"/>
		</g>
	</g>
	<line class="st9" x1="960.4" y1="183.5" x2="961.3" y2="1072.1"/>
	<circle class="st10" cx="959.8" cy="615.9" r="27.8"/>
	<path class="st3" d="M1519,689.5c-29.8-11.4-50.9-40.3-50.9-74.1c0-33.8,21.1-62.6,50.9-74.1"/>
	<path class="st3" d="M400.7,541.8c29.8,11.4,50.9,40.3,50.9,74.1c0,33.8-21.1,62.6-50.9,74.1"/>
	<path class="st3" d="M400.7,826.2H206.3c0-119.7,0-239.3,0-359c0-20.5,0-41,0-61.5c64.8,0,129.6,0,194.4,0V826.2z"/>
	<rect x="1519" y="405.7" class="st3" width="194.4" height="420.5"/>
	<circle class="st10" cx="1616.2" cy="622.4" r="11.9"/>
	<circle class="st10" cx="303.5" cy="615.9" r="11.9"/>
	<polygon class="st8" points="515.7,405.7 456.2,405.7 426.4,457.3 456.2,508.8 515.7,508.8 545.4,457.3 	"/>
	<polygon class="st8" points="612.9,457.3 553.4,457.3 523.6,508.8 553.4,560.3 612.9,560.3 642.7,508.8 	"/>
	<polygon class="st8" points="611.6,346.2 552.1,346.2 522.3,397.7 552.1,449.3 611.6,449.3 641.3,397.7 	"/>
	<polygon class="st8" points="1360,789.5 1300.5,789.5 1270.7,841 1300.5,892.5 1360,892.5 1389.7,841 	"/>
	<polygon class="st8" points="1457.2,841 1397.7,841 1367.9,892.5 1397.7,944.1 1457.2,944.1 1486.9,892.5 	"/>
	<polygon class="st8" points="1455.8,729.9 1396.3,729.9 1366.6,781.5 1396.3,833 1455.8,833 1485.6,781.5 	"/>
	<path class="st11" d="M756.3,124h84.9c8.8,0,15.9-7.1,15.9-15.9V-0.2H663.6L743.1,117C746.1,121.4,751,124,756.3,124z"/>
	<path class="st11" d="M1161,124h-84.9c-8.8,0-15.9-7.1-15.9-15.9V-0.2l193.5,0L1174.2,117C1171.2,121.4,1166.3,124,1161,124z"/>
	<g>
		<rect x="124" y="470.1" class="st12" width="82.3" height="304.5"/>
		<path class="st13" d="M203.6,472.4c-7.2-11.2-23.2-34.5-30.4-45.7c-5.3-8.3-10.7-16.6-16-24.9c-0.8-1.2-2.6-0.6-2.6,0.8
			c0.6,106,1.3,212,1.9,317.9c15.7,18,31.4,36.1,47.1,54.1"/>
		<line class="st14" x1="154.5" y1="397.7" x2="102.2" y2="397.7"/>
		<line class="st15" x1="153.8" y1="409.8" x2="101.5" y2="409.8"/>
		<line class="st15" x1="170.1" y1="425.4" x2="101.5" y2="425.4"/>
		<line class="st15" x1="179.1" y1="441" x2="101.5" y2="441"/>
		<line class="st15" x1="190.1" y1="456.6" x2="101.5" y2="456.6"/>
		<line class="st15" x1="153.8" y1="472.2" x2="101.5" y2="472.2"/>
		<line class="st15" x1="153.8" y1="487.8" x2="101.5" y2="487.8"/>
		<line class="st15" x1="153.8" y1="503.3" x2="101.5" y2="503.3"/>
		<line class="st15" x1="153.8" y1="518.9" x2="101.5" y2="518.9"/>
		<line class="st14" x1="156.7" y1="720.7" x2="102.2" y2="720.7"/>
		<line class="st14" x1="102.2" y1="397.7" x2="102.2" y2="720.7"/>
		<line class="st14" x1="102.2" y1="720.7" x2="124" y2="774.6"/>
		<line class="st15" x1="102.2" y1="397.7" x2="124" y2="470.1"/>
		<line class="st15" x1="153.8" y1="534.5" x2="101.5" y2="534.5"/>
		<line class="st15" x1="153.8" y1="550.1" x2="101.5" y2="550.1"/>
		<line class="st15" x1="153.8" y1="565.7" x2="101.5" y2="565.7"/>
		<line class="st15" x1="153.8" y1="581.3" x2="101.5" y2="581.3"/>
		<line class="st15" x1="153.8" y1="596.9" x2="101.5" y2="596.9"/>
		<line class="st15" x1="153.8" y1="612.5" x2="101.5" y2="612.5"/>
		<line class="st15" x1="153.8" y1="628" x2="101.5" y2="628"/>
		<line class="st15" x1="153.8" y1="643.6" x2="101.5" y2="643.6"/>
		<line class="st15" x1="153.8" y1="659.2" x2="101.5" y2="659.2"/>
		<line class="st15" x1="153.8" y1="674.8" x2="101.5" y2="674.8"/>
		<line class="st15" x1="153.8" y1="690.4" x2="101.5" y2="690.4"/>
		<line class="st15" x1="153.8" y1="706" x2="101.5" y2="706"/>
		<line class="st15" x1="162.3" y1="731.3" x2="104.4" y2="731.3"/>
		<line class="st15" x1="171.6" y1="742.3" x2="110.6" y2="742.3"/>
		<line class="st15" x1="181.2" y1="753.2" x2="114.8" y2="753.2"/>
		<line class="st15" x1="190.5" y1="764.2" x2="117.3" y2="764.2"/>
		<line class="st15" x1="127" y1="397.7" x2="127" y2="720.7"/>
		<line class="st15" x1="139.5" y1="397.7" x2="139.5" y2="720.7"/>
		<line class="st15" x1="114.4" y1="397.7" x2="114.4" y2="720.7"/>
		<line class="st15" x1="139" y1="721.2" x2="185.6" y2="774.8"/>
		<line class="st15" x1="127.2" y1="721.2" x2="173.9" y2="774.7"/>
		<line class="st15" x1="115.5" y1="721.1" x2="162.1" y2="774.7"/>
		<line class="st15" x1="103.7" y1="721.7" x2="150.4" y2="775.3"/>
		<line class="st15" x1="112.4" y1="747.3" x2="136.2" y2="774.6"/>
		<line class="st15" x1="139.5" y1="395.7" x2="186" y2="470.1"/>
		<line class="st15" x1="127" y1="396.7" x2="173.4" y2="471.2"/>
		<line class="st15" x1="113.6" y1="397.7" x2="160" y2="472.2"/>
		<line class="st15" x1="104.4" y1="399.6" x2="150.9" y2="474.1"/>
		<line class="st15" x1="113.4" y1="436.9" x2="135.5" y2="472.2"/>
	</g>
	<g>
		
			<rect x="1713.9" y="470.3" transform="matrix(-1 -4.489399e-11 4.489399e-11 -1 3509.9775 1245.0941)" class="st12" width="82.3" height="304.5"/>
		<path class="st13" d="M1716.6,472.5c7.2-11.2,23.2-34.5,30.4-45.7c5.3-8.3,10.7-16.6,16-24.9c0.8-1.2,2.6-0.6,2.6,0.8
			c-0.6,106-1.3,212-1.9,317.9c-15.7,18-31.4,36.1-47.1,54.1"/>
		<line class="st14" x1="1765.6" y1="397.9" x2="1818" y2="397.9"/>
		<line class="st15" x1="1766.3" y1="410" x2="1818.7" y2="410"/>
		<line class="st15" x1="1750" y1="425.6" x2="1818.7" y2="425.6"/>
		<line class="st15" x1="1741.1" y1="441.2" x2="1818.7" y2="441.2"/>
		<line class="st15" x1="1730" y1="456.8" x2="1818.7" y2="456.8"/>
		<line class="st15" x1="1766.3" y1="472.3" x2="1818.7" y2="472.3"/>
		<line class="st15" x1="1766.3" y1="487.9" x2="1818.7" y2="487.9"/>
		<line class="st15" x1="1766.3" y1="503.5" x2="1818.7" y2="503.5"/>
		<line class="st15" x1="1766.3" y1="519.1" x2="1818.7" y2="519.1"/>
		<line class="st14" x1="1763.4" y1="720.9" x2="1818" y2="720.9"/>
		<line class="st14" x1="1818" y1="397.9" x2="1818" y2="720.9"/>
		<line class="st14" x1="1818" y1="720.9" x2="1796.1" y2="774.8"/>
		<line class="st15" x1="1818" y1="397.9" x2="1796.1" y2="470.3"/>
		<line class="st15" x1="1766.3" y1="534.7" x2="1818.7" y2="534.7"/>
		<line class="st15" x1="1766.3" y1="550.3" x2="1818.7" y2="550.3"/>
		<line class="st15" x1="1766.3" y1="565.9" x2="1818.7" y2="565.9"/>
		<line class="st15" x1="1766.3" y1="581.5" x2="1818.7" y2="581.5"/>
		<line class="st15" x1="1766.3" y1="597" x2="1818.7" y2="597"/>
		<line class="st15" x1="1766.3" y1="612.6" x2="1818.7" y2="612.6"/>
		<line class="st15" x1="1766.3" y1="628.2" x2="1818.7" y2="628.2"/>
		<line class="st15" x1="1766.3" y1="643.8" x2="1818.7" y2="643.8"/>
		<line class="st15" x1="1766.3" y1="659.4" x2="1818.7" y2="659.4"/>
		<line class="st15" x1="1766.3" y1="675" x2="1818.7" y2="675"/>
		<line class="st15" x1="1766.3" y1="690.6" x2="1818.7" y2="690.6"/>
		<line class="st15" x1="1766.3" y1="706.2" x2="1818.7" y2="706.2"/>
		<line class="st15" x1="1757.9" y1="731.5" x2="1815.8" y2="731.5"/>
		<line class="st15" x1="1748.6" y1="742.5" x2="1809.6" y2="742.5"/>
		<line class="st15" x1="1738.9" y1="753.4" x2="1805.4" y2="753.4"/>
		<line class="st15" x1="1729.7" y1="764.4" x2="1802.8" y2="764.4"/>
		<line class="st15" x1="1793.2" y1="397.9" x2="1793.2" y2="720.9"/>
		<line class="st15" x1="1780.6" y1="397.9" x2="1780.6" y2="720.9"/>
		<line class="st15" x1="1805.8" y1="397.9" x2="1805.8" y2="720.9"/>
		<line class="st15" x1="1781.2" y1="721.4" x2="1734.5" y2="775"/>
		<line class="st15" x1="1792.9" y1="721.3" x2="1746.3" y2="774.9"/>
		<line class="st15" x1="1804.7" y1="721.3" x2="1758" y2="774.9"/>
		<line class="st15" x1="1816.4" y1="721.9" x2="1769.8" y2="775.5"/>
		<line class="st15" x1="1807.7" y1="747.5" x2="1784" y2="774.8"/>
		<line class="st15" x1="1780.6" y1="395.9" x2="1734.2" y2="470.3"/>
		<line class="st15" x1="1793.2" y1="396.9" x2="1746.8" y2="471.3"/>
		<line class="st15" x1="1806.5" y1="397.9" x2="1760.1" y2="472.3"/>
		<line class="st15" x1="1815.7" y1="399.8" x2="1769.3" y2="474.3"/>
		<line class="st15" x1="1806.7" y1="437" x2="1784.7" y2="472.3"/>
	</g>
</g>
</svg>
